inDegrees=no
num_controls=7
num_derivatives=13
num_iterations=138
num_multipliers=7
num_parameters=0
num_slacks=7
num_states=26
objective=6.281501
objective_accelerations=0.717074
objective_balance=0.062035
objective_effort=0.593863
objective_height=4.815221
objective_ligament=0.093308
solver_duration=1527.856834
status=Solve_Succeeded
success=true
DataType=double
version=3
OpenSimVersion=4.4-2022-07-23-0e9fedc
endheader
time	/jointset/ground_pelvis/pelvis_tilt/value	/jointset/ground_pelvis/pelvis_tx/value	/jointset/ground_pelvis/pelvis_ty/value	/jointset/hip_l/hip_flexion_l/value	/jointset/hip_l/hip_adduction_l/value	/jointset/hip_l/hip_rotation_l/value	/jointset/back/lumbar_extension/value	/jointset/patellofemoral_l/patellar_flexion_l/value	/jointset/knee_l/knee_flexion_l/value	/jointset/knee_l/knee_adduction_l/value	/jointset/knee_l/knee_rotation_l/value	/jointset/ankle_l/ankle_angle_l/value	/jointset/subtalar_l/subtalar_angle_l/value	/jointset/ground_pelvis/pelvis_tilt/speed	/jointset/ground_pelvis/pelvis_tx/speed	/jointset/ground_pelvis/pelvis_ty/speed	/jointset/hip_l/hip_flexion_l/speed	/jointset/hip_l/hip_adduction_l/speed	/jointset/hip_l/hip_rotation_l/speed	/jointset/back/lumbar_extension/speed	/jointset/patellofemoral_l/patellar_flexion_l/speed	/jointset/knee_l/knee_flexion_l/speed	/jointset/knee_l/knee_adduction_l/speed	/jointset/knee_l/knee_rotation_l/speed	/jointset/ankle_l/ankle_angle_l/speed	/jointset/subtalar_l/subtalar_angle_l/speed	/forceset/tau_hip_flexion_l	/forceset/tau_hip_adduction_l	/forceset/tau_hip_rotation_l	/forceset/tau_knee_flexion_l	/forceset/tau_ankle_angle_l	/forceset/tau_subtalar_angle_l	/forceset/tau_lumbar_extension	lambda_cid13_p0	lambda_cid13_p1	lambda_cid13_p2	lambda_cid13_p3	lambda_cid13_p4	lambda_cid13_p5	lambda_cid14_p0	/jointset/ground_pelvis/pelvis_tilt/accel	/jointset/ground_pelvis/pelvis_tx/accel	/jointset/ground_pelvis/pelvis_ty/accel	/jointset/hip_l/hip_flexion_l/accel	/jointset/hip_l/hip_adduction_l/accel	/jointset/hip_l/hip_rotation_l/accel	/jointset/back/lumbar_extension/accel	/jointset/patellofemoral_l/patellar_flexion_l/accel	/jointset/knee_l/knee_flexion_l/accel	/jointset/knee_l/knee_adduction_l/accel	/jointset/knee_l/knee_rotation_l/accel	/jointset/ankle_l/ankle_angle_l/accel	/jointset/subtalar_l/subtalar_angle_l/accel	gamma_cid13_p0	gamma_cid13_p1	gamma_cid13_p2	gamma_cid13_p3	gamma_cid13_p4	gamma_cid13_p5	gamma_cid14_p0
0	-0.03679530233101001	0.05666563908640974	0.9203420791210074	0.3085811930696054	-0.2956327318219709	-0.3014358197905861	-0.3879500408040475	0.2499276582270311	0.249927658227084	-0.1745328535626151	-0.1743647817617806	-0.0008036543073733089	0.0004434312821835143	0	0	0	0	0	0	0	0	0	0	0	0	0	0.09679556176973614	-0.03971741047064932	-0.0216692055770031	-0.2550633854567427	0.1917784817337687	-0.03225550405581543	-0.02317240756045293	17.85582973164463	8.181079990545918	1.326663710162292	20.79791410471162	-608.8553363935005	-60.7549049439374	-23.19121219505296	-2.047798074646617	-2.630819911555554	-1.145734653408158	11.82473218457801	-0.8260222490265332	3.614508706446062	-8.059767149748788	10.34190659934142	10.34190659934128	1.603636734990665	-0.108271941662706	1.166758248787193	-0.4970477709162233	1.427624300283622e-08	2.001284977611121e-07	9.00527304784064e-08	-3.267742428173777e-08	2.320642515326102e-07	2.070120668682346e-08	2.700006131258476e-09
0.01	-0.036892419998274	0.05653671233546589	0.9202861677885982	0.3091569198881575	-0.295673946659495	-0.3012545212348822	-0.3883493302443479	0.2504341442364557	0.2504341442367939	-0.1744562661832635	-0.17436629958404	-0.0007461773053039029	0.000418363021716584	-0.01930308556673158	-0.02554535128373786	-0.01112319093072244	0.1144068158473973	-0.008162067992511998	0.03606343017579683	-0.07904935862994067	0.1007758765221137	0.1007758765221126	0.01529925937919956	-0.0002840722690633332	0.01158829340903093	-0.004895795633046918	0.0879299727730702	-0.05309318769593489	-0.02058121043505845	-0.2486826587956084	0.1817806387759263	-0.01432270519960674	-0.01451348384891824	15.17336971358939	0.9702377198216618	2.353258067177953	19.33090815026783	-613.0369555150404	-75.09929692697607	-23.19706205315387	-1.85350939728332	-2.480399432505583	-1.086703567348676	11.13786589402208	-0.7992089206075313	3.572813936486118	-7.706240807831264	9.867228827895012	9.86722882789503	1.490380184516945	0.01445815375164509	1.168805908901432	-0.4682097340376885	-2.385076664262366e-08	2.075417494275965e-07	1.589491535349672e-07	1.497345789526191e-08	4.106751249134304e-08	-2.92062474652678e-08	-1.819337453359458e-09
0.02	-0.03717895764106349	0.05615953073254447	0.9201208060959936	0.3108545567870434	-0.2957943641461804	-0.3007184776247442	-0.3895148573885741	0.2519327491413239	0.2519327491413282	-0.1742272242808179	-0.174370071523803	-0.0005700291647527349	0.0003478639500115224	-0.03788399511763243	-0.04965097039551145	-0.02189007203906266	0.2243820160628546	-0.01584052983475169	0.070949010885251	-0.1532475407886889	0.1984237790141769	0.1984237790141755	0.03049090456368365	-0.0004508236069506432	0.02373422769569807	-0.009086162247641512	0.07906438377623387	-0.06646896492133691	-0.0194932152962313	-0.2423019321341341	0.1717827958180394	0.003610093656507448	-0.005854560137456563	12.57196125908736	-6.252737980827926	3.379435719266046	17.77952032320731	-615.9766139992274	-89.34463934296168	-23.21417038129036	-1.903362871482096	-2.342873477161268	-1.074472688931701	10.9384090581898	-0.7293010189722595	3.378938813177706	-7.089531855511214	9.716311793331053	9.716311793331075	1.582113896047142	-0.08480775542727687	1.278286424315989	-0.3559619672254004	-6.197777628808355e-08	2.149550010940809e-07	2.27845576591528e-07	6.262434007226161e-08	-1.499292265499241e-07	-7.911370161735907e-08	-6.338681037977392e-09
0.03	-0.03764830462888721	0.05554744027926539	0.9198490033096935	0.3136324379819365	-0.2959894541149331	-0.2998397147864245	-0.3914014467871548	0.2543932517062438	0.2543932517062162	-0.1738474247195149	-0.1743755806914497	-0.0002708721175498884	0.0002382376342122788	-0.05589158046009033	-0.07263149049935627	-0.03246042991994472	0.3306687194958494	-0.02313868284176936	0.1046382241809002	-0.2236334023567442	0.2932408958838578	0.2932408958838583	0.04535682576788289	-0.0006435932080421766	0.03606298336374995	-0.01280999785466427	0.07277243983619487	-0.05763450327163896	-0.01881872649732267	-0.2376675827851996	0.1696178209318594	-0.001370036835441056	-0.0002849016105195206	11.6796793472809	-4.019971035018493	3.122087980250549	17.45484152331146	-616.9134279816847	-83.74061631304687	-23.24168764381602	-1.735389495565666	-2.255284091667392	-1.046839800015922	10.39496517328763	-0.7243157875731354	3.339087359842793	-6.947572824329319	9.299037206917014	9.299037206917379	1.422061839003722	0.01463392468263938	1.205043003697823	-0.3762889712167518	-8.599032283544167e-08	1.783410240423534e-07	3.061451272028876e-07	8.059437669138024e-08	-2.491336709175731e-07	-1.310454700944901e-07	-1.869788080681625e-08
0.04	-0.03829491409606532	0.05470961606201782	0.9194717924521154	0.3174574190486871	-0.2962563742829651	-0.298629024860743	-0.3939787867047804	0.2577888505544374	0.2577888505544444	-0.1733223198249279	-0.1743827884577499	0.0001505470594645147	9.223403958777252e-05	-0.07333649100033106	-0.09479772318920968	-0.04297168629470091	0.4338019904261898	-0.03020656968906892	0.137334428359939	-0.2913976446000798	0.3854430356787573	0.3854430356787597	0.05955197122798028	-0.000790543323793057	0.04818665365774422	-0.01636161801272141	0.0664804958962056	-0.0488000416218848	-0.01814423769794656	-0.2330332334362767	0.1674528460457058	-0.006350167327328709	0.005284756916408592	10.86199315740219	-1.795916315397299	2.86116145216175	17.04298166560315	-616.726961748077	-78.03944716427516	-23.27864765315579	-1.790827911040235	-2.180015994361626	-1.062652387706506	10.3077225576587	-0.6832477870287443	3.180336989855802	-6.565207990568185	9.193316378374524	9.193316378374519	1.447958747226465	-0.07564385835888691	1.237269349505952	-0.3215188774318801	-1.09711849525107e-07	1.408192690789101e-07	3.846385567329028e-07	9.795243711342917e-08	-3.464454906527764e-07	-1.830189770113127e-07	-3.121872709491741e-08
0.05	-0.03911342766584365	0.05365465952374884	0.9189896021878996	0.3222977343308266	-0.2965924589953633	-0.2970972281624995	-0.3972189483573969	0.2620932927726209	0.2620932927726511	-0.1726581281513437	-0.1743918182073496	0.0006926555590701585	-8.787986997737683e-05	-0.09026103683917769	-0.1160115747950616	-0.05346578768490581	0.5336563327313808	-0.03694115471961028	0.1688357785608232	-0.3560698970714107	0.4749738191110432	0.4749738191110499	0.07320071234039213	-0.0009985536328656367	0.06024513920573658	-0.01958560272327915	0.05866783784476938	-0.04827764529673426	-0.01724282496606981	-0.2281399022966745	0.1627013084257598	-0.002786749864252387	0.01224724045368556	9.519160229378059	-3.111822984339874	3.074876248535564	16.16466532242782	-617.1659194862912	-79.66921335540043	-23.32382257191658	-1.627494751262741	-2.064748558914807	-1.042772260536302	9.733567428083523	-0.658247382342466	3.106609893073224	-6.333515549937175	8.762227342654398	8.762227342655059	1.310543172408254	0.009212030419588915	1.191651957420888	-0.3115702498933546	-1.258511146223851e-07	1.002504536213633e-07	4.218118054466818e-07	1.135506643302771e-07	-4.276038605560941e-07	-2.141224785054601e-07	-3.850775998264946e-08
